<?xml version="1.0" encoding="utf-8"?>
<!-- Svg Vector Icons : http://www.onlinewebfonts.com/icon -->
<!DOCTYPE svg PUBLIC "-//W3C//DTD SVG 1.1//EN" "http://www.w3.org/Graphics/SVG/1.1/DTD/svg11.dtd">
<svg version="1.1" xmlns="http://www.w3.org/2000/svg" xmlns:xlink="http://www.w3.org/1999/xlink" x="0px" y="0px" viewBox="0 0 1000 1000" enable-background="new 0 0 1000 1000" xml:space="preserve">
<metadata> Svg Vector Icons : http://www.onlinewebfonts.com/icon </metadata>
<g><path d="M372.2,478.7h-213v42.6h213V478.7z M159.1,777h468.7v-42.6H159.1V777z M372.2,350.9h-213v42.6h213V350.9z M159.1,649.1h468.7v-42.6H159.1V649.1z M770.7,421l-263-283.2h-92.9c-155.9,0-319.6,0-319.6,0C48.2,137.8,10,176,10,223v681.7c0,47.1,38.2,85.2,85.2,85.2h596.5c47.1,0,85.2-38.2,85.2-85.2V436.1l-7.5-7.5L770.7,421z M521.3,215.8l186.5,199H563.9c-23.5,0-42.6-19.1-42.6-42.6V215.8z M734.3,904.8c0,23.5-19.1,42.6-42.6,42.6H95.2c-23.5,0-42.6-19.1-42.6-42.6V223c0-23.5,19.1-42.6,42.6-42.6h383.5v191.7c0,47.1,38.2,85.2,85.2,85.2h170.4V904.8z M982.5,300.7l1.3-7.5L720.8,10h-93c-155.9,0-319.6,0-319.6,0C261.2,10,223,48.2,223,95.2h42.6c0-23.5,19.1-42.6,42.6-42.6h383.5v191.7c0,47.1,38.2,85.2,85.2,85.2h170.4V777c0,23.5-19.1,42.6-42.6,42.6h-85.2v42.6h85.2c47.1,0,85.2-38.2,85.2-85.2V308.3L982.5,300.7z M777,287c-23.5,0-42.6-19.1-42.6-42.6V88l186.5,199H777z"/></g>
</svg>